<?xml version="1.0" encoding="utf-8"?>
<svg xmlns="http://www.w3.org/2000/svg" width="1000" height="590" viewBox="0 0 1000 590">
<style>
  text { font-family: "Microsoft YaHei", "SimHei", sans-serif; }
</style>
<rect width="1000" height="590" fill="white"/>
<line x1="80" y1="460.0" x2="960" y2="460.0" stroke="#e0e0e0" stroke-dasharray="4,4"/>
<text x="72" y="464.0" text-anchor="end" font-size="11" fill="#555">50</text>
<line x1="80" y1="411.2" x2="960" y2="411.2" stroke="#e0e0e0" stroke-dasharray="4,4"/>
<text x="72" y="415.2" text-anchor="end" font-size="11" fill="#555">55</text>
<line x1="80" y1="362.4" x2="960" y2="362.4" stroke="#e0e0e0" stroke-dasharray="4,4"/>
<text x="72" y="366.4" text-anchor="end" font-size="11" fill="#555">60</text>
<line x1="80" y1="313.6" x2="960" y2="313.6" stroke="#e0e0e0" stroke-dasharray="4,4"/>
<text x="72" y="317.6" text-anchor="end" font-size="11" fill="#555">65</text>
<line x1="80" y1="264.8" x2="960" y2="264.8" stroke="#e0e0e0" stroke-dasharray="4,4"/>
<text x="72" y="268.8" text-anchor="end" font-size="11" fill="#555">70</text>
<line x1="80" y1="216.0" x2="960" y2="216.0" stroke="#e0e0e0" stroke-dasharray="4,4"/>
<text x="72" y="220.0" text-anchor="end" font-size="11" fill="#555">75</text>
<line x1="80" y1="167.1" x2="960" y2="167.1" stroke="#e0e0e0" stroke-dasharray="4,4"/>
<text x="72" y="171.1" text-anchor="end" font-size="11" fill="#555">80</text>
<line x1="80" y1="118.3" x2="960" y2="118.3" stroke="#e0e0e0" stroke-dasharray="4,4"/>
<text x="72" y="122.3" text-anchor="end" font-size="11" fill="#555">85</text>
<line x1="80" y1="69.5" x2="960" y2="69.5" stroke="#e0e0e0" stroke-dasharray="4,4"/>
<text x="72" y="73.5" text-anchor="end" font-size="11" fill="#555">90</text>
<text x="20" y="255" text-anchor="middle" font-size="13" font-weight="bold" fill="#333" transform="rotate(-90, 20, 255)">SS (mV/dec)</text>
<line x1="80" y1="362.4" x2="960" y2="362.4" stroke="#333" stroke-dasharray="8,4" stroke-width="2"/>
<text x="960" y="356.4" text-anchor="end" font-size="11" font-weight="bold" fill="#333">理论极限: 60 mV/dec (室温)</text>
<rect x="80" y="460.0" width="880" height="-97.6" fill="#2E7D32" opacity="0.08"/>
<text x="900" y="480.0" text-anchor="middle" font-size="9" fill="#2E7D32">亚热电子(负电容/隧穿)</text>
<rect x="104.0" y="245.2" width="40.0" height="214.8" fill="#90A4AE" rx="2" opacity="0.15" transform="translate(2,2)"/>
<rect x="104.0" y="245.2" width="40.0" height="214.8" fill="#90A4AE" rx="2"/>
<text x="124.0" y="239.2" text-anchor="middle" font-size="11" font-weight="bold" fill="#90A4AE">72</text>
<rect x="192.0" y="284.3" width="40.0" height="175.7" fill="#1565C0" rx="2" opacity="0.15" transform="translate(2,2)"/>
<rect x="192.0" y="284.3" width="40.0" height="175.7" fill="#1565C0" rx="2"/>
<text x="212.0" y="278.3" text-anchor="middle" font-size="11" font-weight="bold" fill="#1565C0">68</text>
<rect x="280.0" y="361.4" width="40.0" height="98.6" fill="#1565C0" rx="2" opacity="0.15" transform="translate(2,2)"/>
<rect x="280.0" y="361.4" width="40.0" height="98.6" fill="#1565C0" rx="2"/>
<text x="300.0" y="355.4" text-anchor="middle" font-size="11" font-weight="bold" fill="#1565C0">60.1</text>
<rect x="368.0" y="333.1" width="40.0" height="126.9" fill="#1565C0" rx="2" opacity="0.15" transform="translate(2,2)"/>
<rect x="368.0" y="333.1" width="40.0" height="126.9" fill="#1565C0" rx="2"/>
<text x="388.0" y="327.1" text-anchor="middle" font-size="11" font-weight="bold" fill="#1565C0">63</text>
<rect x="456.0" y="303.8" width="40.0" height="156.2" fill="#00897B" rx="2" opacity="0.15" transform="translate(2,2)"/>
<rect x="456.0" y="303.8" width="40.0" height="156.2" fill="#00897B" rx="2"/>
<text x="476.0" y="297.8" text-anchor="middle" font-size="11" font-weight="bold" fill="#00897B">66</text>
<rect x="544.0" y="179.8" width="40.0" height="280.2" fill="#E65100" rx="2" opacity="0.15" transform="translate(2,2)"/>
<rect x="544.0" y="179.8" width="40.0" height="280.2" fill="#E65100" rx="2"/>
<text x="564.0" y="173.8" text-anchor="middle" font-size="11" font-weight="bold" fill="#E65100">78.7</text>
<rect x="632.0" y="234.5" width="40.0" height="225.5" fill="#C62828" rx="2" opacity="0.15" transform="translate(2,2)"/>
<rect x="632.0" y="234.5" width="40.0" height="225.5" fill="#C62828" rx="2"/>
<text x="652.0" y="228.5" text-anchor="middle" font-size="11" font-weight="bold" fill="#C62828">73.1</text>
<rect x="720.0" y="362.4" width="40.0" height="97.6" fill="#7B1FA2" rx="2" opacity="0.15" transform="translate(2,2)"/>
<rect x="720.0" y="362.4" width="40.0" height="97.6" fill="#7B1FA2" rx="2"/>
<text x="740.0" y="356.4" text-anchor="middle" font-size="11" font-weight="bold" fill="#7B1FA2">60</text>
<rect x="808.0" y="167.1" width="40.0" height="292.9" fill="#7B1FA2" rx="2" opacity="0.15" transform="translate(2,2)"/>
<rect x="808.0" y="167.1" width="40.0" height="292.9" fill="#7B1FA2" rx="2"/>
<text x="828.0" y="161.1" text-anchor="middle" font-size="11" font-weight="bold" fill="#7B1FA2">80</text>
<rect x="896.0" y="411.2" width="40.0" height="48.8" fill="#FF6D00" rx="2" opacity="0.15" transform="translate(2,2)"/>
<rect x="896.0" y="411.2" width="40.0" height="48.8" fill="#FF6D00" rx="2"/>
<text x="916.0" y="405.2" text-anchor="middle" font-size="11" font-weight="bold" fill="#FF6D00">55</text>
<text x="124.0" y="476.0" text-anchor="middle" font-size="8" fill="#333">FinFET 5nm</text>
<text x="212.0" y="490.0" text-anchor="middle" font-size="8" fill="#333">GAA NS SF3 nFET</text>
<text x="300.0" y="476.0" text-anchor="middle" font-size="8" fill="#333">GAA NS N2 nFET</text>
<text x="388.0" y="490.0" text-anchor="middle" font-size="8" fill="#333">GAA NS N2 pFET</text>
<text x="476.0" y="476.0" text-anchor="middle" font-size="8" fill="#333">Forksheet imec</text>
<text x="564.0" y="490.0" text-anchor="middle" font-size="8" fill="#333">CFET nFET imec</text>
<text x="652.0" y="476.0" text-anchor="middle" font-size="8" fill="#333">FlipFET PKU</text>
<text x="740.0" y="490.0" text-anchor="middle" font-size="8" fill="#333">2D MoS2 顶栅</text>
<text x="828.0" y="476.0" text-anchor="middle" font-size="8" fill="#333">2D MoS2 CFET</text>
<text x="916.0" y="490.0" text-anchor="middle" font-size="8" fill="#333">NC-CFET</text>
<line x1="80" y1="460.0" x2="960" y2="460.0" stroke="#333" stroke-width="1"/>
<text x="500" y="30" text-anchor="middle" font-size="15" font-weight="bold" fill="#222">各技术方案亚阈值摆幅 (SS) 对比</text>
<text x="500" y="48" text-anchor="middle" font-size="11" fill="#666">数值越小表示开关特性越好</text>
<rect x="86" y="56" width="360" height="70" fill="white" opacity="0.85" rx="4"/>
<rect x="92" y="62" width="12" height="12" fill="#90A4AE" rx="2"/>
<text x="108" y="72" font-size="8" fill="#444">FinFET (基线)</text>
<rect x="262" y="62" width="12" height="12" fill="#1565C0" rx="2"/>
<text x="278" y="72" font-size="8" fill="#444">GAA 纳米片</text>
<rect x="92" y="80" width="12" height="12" fill="#00897B" rx="2"/>
<text x="108" y="90" font-size="8" fill="#444">Forksheet</text>
<rect x="262" y="80" width="12" height="12" fill="#E65100" rx="2"/>
<text x="278" y="90" font-size="8" fill="#444">CFET</text>
<rect x="92" y="98" width="12" height="12" fill="#C62828" rx="2"/>
<text x="108" y="108" font-size="8" fill="#444">FlipFET</text>
<rect x="262" y="98" width="12" height="12" fill="#7B1FA2" rx="2"/>
<text x="278" y="108" font-size="8" fill="#444">2D 材料 FET</text>
<rect x="92" y="116" width="12" height="12" fill="#FF6D00" rx="2"/>
<text x="108" y="126" font-size="8" fill="#444">NC-CFET (负电容)</text>
</svg>